Coordinates
version=1
nRows=16
nColumns=40
inDegrees=yes

Units are S.I. units (second, meters, Newtons, ...)
If the header above contains a line with 'inDegrees', this indicates whether rotational values are in degrees (yes) or radians (no).

endheader
time	pelvis_tilt	pelvis_list	pelvis_rotation	pelvis_tx	pelvis_ty	pelvis_tz	hip_flexion_r	hip_adduction_r	hip_rotation_r	knee_angle_r	knee_angle_r_beta	ankle_angle_r	subtalar_angle_r	mtp_angle_r	hip_flexion_l	hip_adduction_l	hip_rotation_l	knee_angle_l	knee_angle_l_beta	ankle_angle_l	subtalar_angle_l	mtp_angle_l	lumbar_extension	lumbar_bending	lumbar_rotation	arm_flex_r	arm_add_r	arm_rot_r	elbow_flex_r	pro_sup_r	wrist_flex_r	wrist_dev_r	arm_flex_l	arm_add_l	arm_rot_l	elbow_flex_l	pro_sup_l	wrist_flex_l	wrist_dev_l
      0.96000000	      1.97898443	     -3.60433234	     89.73500064	      0.22656941	      0.87565818	      0.70975563	     25.02115418	     -6.62937140	     -9.82525690	     27.39828405	      0.47819027	     -0.98787443	      0.00000000	      0.00000000	      0.79335065	      4.26796205	    -11.70175145	      7.61748444	      0.13295018	      3.02817888	      0.00000000	      0.00000000	     -4.68744977	      1.11115503	      2.90090054	     -7.76221800	     -7.02347366	      1.66356693	     37.49588135	     89.10943916	    -24.79874407	      3.37369596	     -6.26416516	     -8.85925488	     14.84574955	     34.10644792	     89.17431871	    -24.44111645	     -0.58145545
      0.97000000	      1.86458413	     -3.57186917	     89.73923866	      0.22654886	      0.87540652	      0.70718499	     25.36699407	     -6.59004880	     -9.93686602	     26.67553915	      0.46557599	     -0.94648213	      0.00000000	      0.00000000	      0.59524609	      4.39624400	    -11.77227693	      7.66376986	      0.13375802	      3.13932085	      0.00000000	      0.00000000	     -4.77463982	      1.02170067	      2.90538013	     -7.87435607	     -6.97611834	      1.65001103	     37.36576758	     89.10764397	    -24.83549092	      3.38242881	     -6.40407293	     -8.86131689	     14.94509038	     33.94699777	     89.17820109	    -24.43147491	     -0.54930058
      0.98000000	      1.83418321	     -3.54575789	     89.74632103	      0.22659699	      0.87517426	      0.70446301	     25.64561943	     -6.44041841	    -10.03504932	     25.85203027	      0.45120305	     -0.98365081	      0.00000000	      0.00000000	      0.40045539	      4.42292675	    -11.82773448	      7.73594916	      0.13501778	      3.27962870	      0.00000000	      0.00000000	     -4.81238852	      1.02688339	      2.92428782	     -7.98284684	     -6.93422520	      1.67180296	     37.17304770	     89.10967529	    -24.86722269	      3.39555022	     -6.52523951	     -8.85342473	     15.12966038	     33.72244145	     89.18441796	    -24.40284674	     -0.50055731
      0.99000000	      1.83255673	     -3.52467619	     89.75344746	      0.22667537	      0.87494759	      0.70188835	     25.95049864	     -6.25997435	    -10.13053091	     25.06916765	      0.43753952	     -1.03928748	      0.00000000	      0.00000000	      0.22411582	      4.41806630	    -11.88728295	      7.80488692	      0.13622097	      3.43285891	      0.00000000	      0.00000000	     -4.88151843	      1.07368877	      2.92877019	     -8.05980144	     -6.91386788	      1.71237495	     37.04132200	     89.10922671	    -24.88760283	      3.39882649	     -6.61520403	     -8.84597742	     15.32182084	     33.50521756	     89.18533439	    -24.37006670	     -0.45641010
      1.00000000	      1.87970334	     -3.50876256	     89.75809638	      0.22680018	      0.87471366	      0.69915955	     26.20656530	     -6.01265240	    -10.18297152	     24.21117678	      0.42256475	     -1.14477990	      0.00000000	      0.00000000	      0.04260106	      4.35155188	    -11.95764360	      7.89164142	      0.13773513	      3.62472585	      0.00000000	      0.00000000	     -4.91778959	      1.16434938	      2.98519524	     -8.16493255	     -6.90054571	      1.76915047	     36.89969716	     89.10715012	    -24.90635000	      3.40002840	     -6.68360573	     -8.82776525	     15.55630262	     33.26885016	     89.17738332	    -24.32988154	     -0.41428041
      1.01000000	      2.27946556	     -3.34724914	     89.76189421	      0.22703555	      0.87479545	      0.69648435	     26.24879889	     -5.38065647	    -10.35576535	     23.26990205	      0.40613641	     -1.58292810	      0.00000000	      0.00000000	     -0.27192456	      3.88459110	    -12.11765828	      8.03073316	      0.14016273	      4.01797698	      0.00000000	      0.00000000	     -5.13630955	      1.65949872	      3.17675142	     -8.26994096	     -6.97083813	      1.86236047	     36.79572934	     89.10205625	    -24.99209358	      3.31434475	     -6.54363571	     -8.77339174	     16.19534800	     32.81592034	     89.16624197	    -24.23844935	     -0.39493560
      1.02000000	      2.15954464	     -3.34480544	     89.76958881	      0.22713859	      0.87447541	      0.69381395	     26.57810816	     -5.32057387	    -10.32685909	     22.57614490	      0.39402806	     -1.49693020	      0.00000000	      0.00000000	     -0.44469309	      4.00917016	    -12.15710777	      8.08312473	      0.14107714	      4.10800429	      0.00000000	      0.00000000	     -5.19495188	      1.58327809	      3.13119373	     -8.34126144	     -6.92826783	      1.84223678	     36.80581484	     89.09895157	    -25.01343417	      3.31095065	     -6.65757565	     -8.76923820	     16.25749509	     32.71729695	     89.16505027	    -24.24009771	     -0.39307723
      1.03000000	      2.12690909	     -3.36821176	     89.77051964	      0.22735972	      0.87413512	      0.69109651	     26.86967999	     -5.12871367	    -10.17590547	     21.76491994	      0.37986951	     -1.51114944	      0.00000000	      0.00000000	     -0.58478986	      4.02489663	    -12.21153429	      8.15867233	      0.14239569	      4.25037219	      0.00000000	      0.00000000	     -5.19765631	      1.59143301	      3.17964254	     -8.43239139	     -6.89314245	      1.83963297	     36.76872455	     89.09913127	    -25.02823620	      3.31559686	     -6.72046344	     -8.75048142	     16.35458732	     32.60742530	     89.16919724	    -24.24159416	     -0.39645875
      1.04000000	      2.13986915	     -3.40159450	     89.77531125	      0.22760447	      0.87378117	      0.68844488	     27.17693442	     -4.89193244	    -10.03453909	     20.98539648	      0.36626426	     -1.57174794	      0.00000000	      0.00000000	     -0.70024246	      3.98750148	    -12.27031817	      8.24925550	      0.14397667	      4.42371840	      0.00000000	      0.00000000	     -5.22315004	      1.65862350	      3.20626208	     -8.48797991	     -6.87620663	      1.84628774	     36.77316075	     89.09859865	    -25.03517639	      3.31047324	     -6.75722081	     -8.72191387	     16.47533971	     32.49055903	     89.16633967	    -24.24194520	     -0.40445328
      1.05000000	      2.13209716	     -3.43399186	     89.77790179	      0.22784875	      0.87340467	      0.68597541	     27.52757416	     -4.69173201	     -9.90520336	     20.32243451	      0.35469339	     -1.59334772	      0.00000000	      0.00000000	     -0.81025330	      3.97939810	    -12.33895133	      8.31556909	      0.14513406	      4.57533377	      0.00000000	      0.00000000	     -5.28873157	      1.70323974	      3.23624877	     -8.48930885	     -6.87014060	      1.85376318	     36.81757173	     89.09803448	    -25.03649588	      3.29990986	     -6.75514343	     -8.70205962	     16.56401335	     32.41708843	     89.17229529	    -24.24303027	     -0.41436786
      1.06000000	      2.12370633	     -3.48547396	     89.78273477	      0.22812114	      0.87297753	      0.68331121	     27.83622263	     -4.47662797	     -9.69903108	     19.57015325	      0.34156361	     -1.62656934	      0.00000000	      0.00000000	     -0.90836125	      3.96347938	    -12.39897890	      8.40630552	      0.14671771	      4.75196256	      0.00000000	      0.00000000	     -5.30931528	      1.75736340	      3.27115441	     -8.53022159	     -6.85513108	      1.86363176	     36.86750986	     89.09694998	    -25.03543048	      3.28799449	     -6.75988688	     -8.66707790	     16.66457678	     32.35343953	     89.18105078	    -24.24397459	     -0.42837582
      1.07000000	      2.40462770	     -3.53922400	     89.78170026	      0.22853235	      0.87260398	      0.68030532	     28.00679608	     -3.92628306	     -9.40731455	     18.62355561	      0.32504236	     -2.07042344	      0.00000000	      0.00000000	     -0.98497444	      3.60490547	    -12.51581856	      8.64818720	      0.15093934	      5.19215701	      0.00000000	      0.00000000	     -5.24879646	      2.13393598	      3.41451227	     -8.64823327	     -6.88137789	      1.81912749	     36.88498211	     89.09467964	    -25.02610383	      3.25704013	     -6.71279978	     -8.60262551	     16.99823450	     32.12204986	     89.15812813	    -24.26502865	     -0.50939470
      1.08000000	      2.32807286	     -3.58280753	     89.78867119	      0.22885057	      0.87213820	      0.67750939	     28.27996917	     -3.79394556	     -9.22028992	     17.93766330	      0.31307128	     -2.00707130	      0.00000000	      0.00000000	     -1.10819978	      3.66347220	    -12.56387839	      8.72024315	      0.15219695	      5.33445170	      0.00000000	      0.00000000	     -5.27274853	      2.10803976	      3.44590869	     -8.68908925	     -6.86556010	      1.82890433	     37.00497802	     89.09397734	    -25.02031976	      3.23226651	     -6.70341744	     -8.59162351	     17.08836835	     32.10209266	     89.16298099	    -24.28027397	     -0.54638983
      1.09000000	      2.28117599	     -3.59397120	     89.79303665	      0.22914318	      0.87170301	      0.67494295	     28.67352286	     -3.68243587	     -9.11834055	     17.62116380	      0.30754733	     -1.97993346	      0.00000000	      0.00000000	     -1.27010253	      3.69430587	    -12.62809706	      8.74366144	      0.15260568	      5.39447894	      0.00000000	      0.00000000	     -5.38986143	      2.12213867	      3.49289252	     -8.62957422	     -6.86972085	      1.83360170	     37.05019651	     89.09499665	    -25.01690097	      3.22367409	     -6.62700739	     -8.55671312	     17.11558810	     32.12983359	     89.14966656	    -24.28300139	     -0.56018975
      1.10000000	      2.41430501	     -3.70722555	     89.79242030	      0.22964407	      0.87118002	      0.67190099	     28.78525597	     -3.26479466	     -8.64831760	     16.53177548	      0.28853391	     -2.33304517	      0.00000000	      0.00000000	     -1.28156232	      3.49303681	    -12.72947845	      8.97365875	      0.15661989	      5.82363702	      0.00000000	      0.00000000	     -5.28935850	      2.33464157	      3.58945651	     -8.71197628	     -6.86921139	      1.78734706	     37.17333496	     89.09328385	    -24.98885877	      3.17443271	     -6.57916687	     -8.52206154	     17.39586684	     32.01822980	     89.15286138	    -24.32695151	     -0.65426456
      1.11000000	      2.33592357	     -3.76362762	     89.79643147	      0.23004785	      0.87067076	      0.66898718	     29.04340213	     -3.14869256	     -8.44120239	     15.96403123	      0.27862491	     -2.28605927	      0.00000000	      0.00000000	     -1.40736769	      3.54839027	    -12.77820494	      9.03067696	      0.15761505	      5.95020677	      0.00000000	      0.00000000	     -5.30632849	      2.31256725	      3.62247758	     -8.70323769	     -6.85799665	      1.80672401	     37.28829936	     89.09324990	    -24.97773771	      3.15143270	     -6.53385176	     -8.50226346	     17.46653065	     32.06171536	     89.16072030	    -24.33811535	     -0.68546927
